<svg width="20" height="20" viewBox="0 0 20 20" fill="none" xmlns="http://www.w3.org/2000/svg">
<path d="M20 11.7647H17.4353C17.2353 12.5882 16.9176 13.3529 16.4824 14.0353L18.2941 15.8471L15.8235 18.3176L14.0118 16.5059C13.3294 16.9294 12.5647 17.2471 11.7647 17.4353V20H8.23529V17.4353C7.43529 17.2471 6.67059 16.9294 5.98824 16.5059L4.17647 18.3176L1.68235 15.8235L3.49412 14.0118C3.07059 13.3294 2.75294 12.5647 2.56471 11.7647H0V8.27059H2.55294C2.74118 7.44706 3.07059 6.68235 3.49412 5.98824L1.68235 4.17647L4.15294 1.70588L5.96471 3.51765C6.64706 3.08235 7.42353 2.76471 8.23529 2.56471V0H11.7647V2.56471C12.5647 2.75294 13.3294 3.07059 14.0118 3.49412L15.8235 1.68235L18.3176 4.17647L16.5059 5.98824C16.9294 6.68235 17.2588 7.44706 17.4471 8.27059H20V11.7647ZM10 13.5294C11.9529 13.5294 13.5294 11.9529 13.5294 10C13.5294 8.04706 11.9529 6.47059 10 6.47059C8.04706 6.47059 6.47059 8.04706 6.47059 10C6.47059 11.9529 8.04706 13.5294 10 13.5294Z" fill="black"/>
</svg>
