<svg width="18" height="20" viewBox="0 0 18 20" fill="none" xmlns="http://www.w3.org/2000/svg">
<path d="M15.5556 0V2.22222H13.3333V0H4.44444V2.22222H2.22222V0H0V20H2.22222V17.7778H4.44444V20H13.3333V17.7778H15.5556V20H17.7778V0H15.5556ZM4.44444 15.5556H2.22222V13.3333H4.44444V15.5556ZM4.44444 11.1111H2.22222V8.88889H4.44444V11.1111ZM4.44444 6.66667H2.22222V4.44444H4.44444V6.66667ZM15.5556 15.5556H13.3333V13.3333H15.5556V15.5556ZM15.5556 11.1111H13.3333V8.88889H15.5556V11.1111ZM15.5556 6.66667H13.3333V4.44444H15.5556V6.66667Z" fill="black"/>
</svg>
